M48
;Layer_Color=9474304
;FILE_FORMAT=4:3
METRIC,LZ
;TYPE=PLATED
T1F00S00C0.300
T3F00S00C0.700
T4F00S00C0.800
T5F00S00C0.900
T6F00S00C1.000
T7F00S00C1.100
T8F00S00C1.200
T9F00S00C2.700
%
T01
X0056Y0038
X0058
X006
X0062
X0064
X0066
X0068
X007
X0072
X0074
X0076
X0078
X008
X0082
X0084
X0086
X0088
X009
X0092
X0094
X0096
X0098
X01
X0102
X0104
X0106
X0108
X011
X0112
X0114
X0116
X0118
X012
X0122
X0124
X0126
X0128
X013
X0132
X0134
X0136
X0138
X014
X0142
X0144
X0146
X0148
X015
X0149Y004
X0143
X0141
X014075Y0042971
X0141Y0044
X0143
X01434Y0043011
X0144Y0046
X0143Y0048
X0144Y005
X0143Y0052
X0144Y0054
X0143Y0056
X0141
X01402Y0054875
X01381
X0135375Y0055175
X013449Y0056025
X0134754Y005745
X0136Y0058664
X01382Y0058625
X014Y0058
X0142
X0144
Y0066
X0142
X014
X0138
X0136
X0135Y0068
X0137
X0139
X0141
X0143
X0145
X0147
X0149
X0151
X0153
X0155
X0154Y0066
X0152
X015
X0148
X0146
Y007
X0144
X0142
X014
X0138
X0136
X0134
X0132
X0132775Y00734
X0132Y0078
X0134
X0136
X0138
X014
X0142
X0144
X0146
X0148
X015
X0152
X0154
X0155Y0076
Y0072
X0154Y007
X0152
X015
X0148
X0133375Y0058694
X0131375Y005865
X0128875Y005832
X0124Y0058
X0122
X012
X0121Y0056
X0123
X0123375Y005545
X0124Y0054
X01242Y0052925
X0125Y0048
X0123
X0121
X0121185Y00491
X0121Y0044
X0123
X0125
X0127
X0129
X0131
X0133
X0132Y0042
X013
X0128
X0126
X0124
X0122
X012
X0121Y004
X0123
X0125
X0127
X0129
X0131
X0133
X0134Y0042
X0133Y0048
X0135
X0137
X0134Y0054
X0130701Y0052196
X0127Y0048
X0123Y006
X0121
X0122Y0062
X0124
X0123Y0064
X0121
X0125
X0127
X0126Y0078
X0124
X0122
X012
X0114
X0112
X011
X0109Y0076
X0111
X0113
X0112Y0074
X011
X0108
X0107Y0072
X0109
X0111
X011Y007
X0108
X0107Y0068
Y0064
X0113
X0115
X0117
X0119
X0116Y0062
X0117Y006
X0118Y0058
X0117Y0056
X0119
X0113
X0115Y0052
X0114Y005
X0113Y0048
X0115
X0114Y0046
X0113Y0044
X0115
X0117
X0119
X0118Y0042
X0117Y004
X0115
X0113
X0114Y0042
X0119Y004
X0093Y0052
X0091
X0089
X0087
X0085
X0082Y005
X008045Y005609
X008Y0062
X0081Y0062475
X0082Y0062
X0084
X0086
X0088
X009
X0089Y0064
X0087
X0085
X0082679Y0063903
X0082336Y0066688
X0080902Y0066983
X00794Y0066
X0084Y0066
X0086
X0091Y0064
X0096Y0062
Y0058
X0098
X0097Y0056
X0095
X0094Y0054
X009
X0089Y0056
X0088Y0058
X0082Y007
X0081Y0072
X008125Y00775
X008Y0078
X00895Y0077146
X0096Y0078
X0102
X0106
X0098Y0066
X0078
X0078675Y006688
X0079Y0068
X0079023Y0069539
X0076122Y00725
X0074Y0074
X0073Y0076
X0075
X00743Y0077095
X0074Y0078
X0079145Y00776
X0068Y0078
X0064
X0062237Y0075651
X0063825Y0072075
X0064845
X0066545Y00707
X0066465Y0069111
X0066179Y0067986
X006476Y006782
X0063975Y0068946
X0062962Y0068
X0062075Y00697
X0056Y007
X0054
X0053675Y0072025
X0054Y0074
X005695Y0075755
X0058579Y007735
X0051275Y007745
Y007865
X0052375
X0054Y0066
X0055Y0064
X0054Y0062
X0058
X0058405Y0064675
X0059Y0056
X00575Y0055
X0058Y0054
X0056425Y0054275
X006Y0054
X0062
X0064
X0066
X0067Y0052
X0066332Y00511
X0065Y0052
X006494Y0049757
X0064Y005
X0063Y0048
X0061
X0059825Y0047675
X0059Y0048
X0057
X0055
X0053
X00525Y005135
X0053Y0052
X0052425Y0052975
X00512
Y00542
X005125Y0051325
X0056Y005
X00575Y005
X0058Y0046
X0056
X0055Y0044
X0053
X0057
X0059
X0061
X0063
X0065
X0067
X0069
X0071
X0073
X0072Y0042
X007
X0068
X0066
X0064
X0062
X006
X0058
X0056
X0057Y004
X0059
X0061
X0063
X0065
X0067
X0069
X0071
X0073
X0074Y0042
Y0046
X0072
X007
X0068
X0066111Y0045875
X0064Y0046
X006494Y0047742
X0067725
X0069Y0048
X0071
X0073
X0074Y005
X007465Y00513
X0073312Y0051325
X0072Y0054
X007
X0071Y0056
X0073
X0075
X0077615Y0055425
X00776Y0056841
Y0052975
X0076Y0062
X0074
X0072
X007
X0068475Y0062581
X0068448Y0063903
X0071325
X0072Y0066
X00732Y0066
X00725Y0067075
X0070165Y006745
X007108Y0069234
X0074625Y0063903
X0077198
X0072Y0058
X0069Y0056
X0063822Y005695
X0063725Y00598
X0065Y006
X0067725Y0049757
X00695Y0049675
X007Y0086
X0068
X0066
X0064
X0062
X0063Y0088
X0065
X0067
X0069
X0071
X007Y009
X0068
X0066
X0064
X0062
X0061Y0092
X0063
X0065
X0067
X0069
X0066Y0094
X0064
X0062
X0059Y01
X0057
X0055
X0053
X0052Y0098
X0054
X0056
Y0102
X0058
X006
X0059Y0104
X0057
X0058Y0106
X006
X0062
X0064
X0066
X0068
X007
X0072
X0074
X0076
X0078
X0077Y0104
X0075
X0073
X0071
X0069
X0067
X0065
X0063
X0061
X0052Y0102
Y0094
X0052078Y00927
X0051275Y00918
X0054242Y0090575
X005335Y00823
X0052325
X0051337
X0072Y0086
X0074
X0079Y0088
Y008
X0077
X0079Y0104
X0081
X008Y0106
X0084
X0086
X0088
X009
X0092
X0094
X0096
X0098
X01
X0102
X0104
X0106
X0108
X011
X0112
X0114
X0116
X0118
X0117Y0104
X0115
X0113
X0111
X0109
X0107
X0105
X0103
X0101
X0099
X0097
X0091
X0089
X0087
X0085
X0084Y0098
X0082
X008
X0086
X0092
X0094
X0096
X0098
X01
X0102
X0104
X0106
X0108
X011
X0112
X0114
X0116
X0118
X0119Y0104
X0105Y0088
X0103
X0101
X0099
X0097
X0096Y009
X0094
X0092
X009
X0088
X0086
X0084
X0082
X008
X0081Y0088
X0083
X0085
X0087
X0089
X0091
Y0084
X0089
X0093
X0095
X0097
X0099
X0101
X0103
X0105
X0107
X0109
X0108Y0082
X0106
X0104
X0102
X01
X0098
X0096
X0093Y008
X0086463Y008169
X008345Y0084897
X0098Y0086
X01
X0102
X0104
X0106
X0105Y008
X0103
X0107
X0109
X0111
X0111896Y0080979
X0113Y008
X011Y0082
X0102Y009
X01
X0098
X012
X0122
X0124
X0126
X0128
X013
X0129Y0088
X0127
X0125
X0123
X0121
X012Y0086
X0122
X0124
X0126
X0128
X013
X0129Y0084
X0127
X0125
X0123
X0121
X012Y0082
X0122
X0124
X0126
X0128
X013
X0132
X0134
X0136
X0138
X0137Y008
X0135
X0133
X0131
X0129
X0127
X0125
X0123
X0121
Y0092
X0123
X0125
X0127
X0129
X0128Y0094
X0126
X0124
X0122
X012
X0121Y0096
X0123
X0125
X0127
X0129
X013Y0094
X0126Y0098
X0124
X0122
X012
X0121Y0104
X0123
X0125
X0127
X0129
X0131
X013Y0106
X0128
X0126
X0124
X0122
X012
X0132
X0134
X0136
X0138
X014
X0142
X0144
X0146
X0148
X015
X0149Y0104
X0147
X0145
X0143
X0141
X0139
X0137
X0138Y0102
X014
X0142
X0144
X0146
X0148
X015
X0152
X0151Y01
X0153
X0155
X0154Y0098
X0153Y0096
X0155
X0154Y0094
X0152
X015087Y0092714
X0147725Y0092692
X0145381Y00927
X0146Y0098
X0148
X0143Y01
X0141
X0139
X0137
X0135Y0084
X0133
X0131
X0139
X0141
X0143
X0145
X0147
X0146Y0082
X0144
X0142
X0141Y008
X0139
X0143
X0145
X0147
X0149
X0148Y0082
Y0086
X0146
X0144
X0142
X0154
X0155Y0084
X0154Y0082
X0152
X0153Y008
X0155
Y0088
X0154Y009
X0155Y0092
T03
X0119225Y006102
X0116685Y005848
X0114145Y006102
X007395Y005322
X007141Y005068
X007649
T04
X00942Y008635
Y0103495
X01337
Y008635
T05
X006283Y0080875
X006537
X006791
X007045
X007299
X007553
X0075448Y00841
X0072908
X0070368
X0067828
X0065288
X0062748
T06
X013635Y004235
X0129143Y0069725
Y0077225
X011635Y004235
T07
X0150375Y008085
Y008435
T08
X0080318Y00467
X0077818
T09
X015325Y004
X005325
Y0105
X015325
M30
